<svg width="90" height="90" viewBox="0 0 90 90" fill="none" xmlns="http://www.w3.org/2000/svg">
<circle cx="45" cy="45" r="44.5" fill="#FAFAFA" stroke="black"/>
<path d="M24.4 46.2C24.0533 46.2 23.7733 46.16 23.56 46.08C23.3467 46.0267 23.24 45.92 23.24 45.76C23.24 45.44 23.68 45.2 24.56 45.04C25.5733 44.8533 26.2667 44.5467 26.64 44.12C27.04 43.6667 27.24 42.9467 27.24 41.96V23.96C27.24 23.0267 27.04 22.3733 26.64 22C26.2667 21.6 25.5733 21.3067 24.56 21.12C23.68 20.96 23.24 20.6933 23.24 20.32C23.24 20.16 23.3467 20.0533 23.56 20C23.7733 19.92 24.0533 19.88 24.4 19.88C25.12 19.88 25.6933 19.8933 26.12 19.92C26.5733 19.92 27 19.9333 27.4 19.96C27.8 19.96 28.2933 19.96 28.88 19.96C29.3867 19.96 29.7867 19.96 30.08 19.96C30.4 19.9333 30.7467 19.92 31.12 19.92C31.4933 19.8933 32.04 19.88 32.76 19.88C33.1067 19.88 33.3867 19.92 33.6 20C33.8133 20.0533 33.92 20.16 33.92 20.32C33.92 20.5067 33.8133 20.6667 33.6 20.8C33.3867 20.9333 33.0533 21.04 32.6 21.12C31.6133 21.3067 31 21.64 30.76 22.12C30.5467 22.5733 30.44 23.1867 30.44 23.96V31.44C30.44 31.5467 30.44 31.7067 30.44 31.92C30.4667 32.1067 30.5333 32.2 30.64 32.2C30.7733 32.2 30.9467 32.12 31.16 31.96C31.4 31.8 31.5867 31.64 31.72 31.48L39.72 23.32C39.9333 23.1067 40.08 22.9067 40.16 22.72C40.2667 22.5067 40.32 22.3067 40.32 22.12C40.32 21.64 40.0667 21.3333 39.56 21.2C39.1067 21.0667 38.7867 20.9467 38.6 20.84C38.4133 20.7333 38.32 20.5867 38.32 20.4C38.32 20.24 38.4267 20.1333 38.64 20.08C38.8533 20 39.1333 19.96 39.48 19.96H41.64C42.4133 19.96 43.2667 19.9467 44.2 19.92C45.1333 19.8933 45.9733 19.8667 46.72 19.84C47.4933 19.8133 47.96 19.8 48.12 19.8C48.3867 19.8 48.6 19.84 48.76 19.92C48.92 20 49 20.1067 49 20.24C49 20.4267 48.8933 20.5867 48.68 20.72C48.4667 20.8533 48.1333 20.96 47.68 21.04C46.6933 21.2267 45.6667 21.52 44.6 21.92C43.5333 22.32 42.5333 22.9067 41.6 23.68C40.64 24.48 39.7467 25.2667 38.92 26.04C38.12 26.7867 37.32 27.5733 36.52 28.4C35.72 29.2 34.8533 30.12 33.92 31.16C33.76 31.32 33.8267 31.56 34.12 31.88L43.8 42.2C44.3867 42.84 44.8533 43.3333 45.2 43.68C45.5733 44.0267 45.9733 44.3067 46.4 44.52C46.8533 44.7067 47.4533 44.88 48.2 45.04C48.6533 45.1467 48.9867 45.2533 49.2 45.36C49.4133 45.44 49.52 45.5733 49.52 45.76C49.52 45.92 49.4133 46.0267 49.2 46.08C48.9867 46.16 48.7067 46.2 48.36 46.2C47.5867 46.2 46.92 46.1733 46.36 46.12C45.8 46.0933 45.2533 46.0667 44.72 46.04C44.1867 46.0133 43.5467 46 42.8 46C42.2933 46 41.8533 46 41.48 46C41.1067 46.0267 40.4667 46.04 39.56 46.04C39.2133 46.04 38.9333 46.0133 38.72 45.96C38.5067 45.88 38.4 45.76 38.4 45.6C38.4 45.3067 38.76 45.08 39.48 44.92C40.2267 44.7333 40.6 44.4667 40.6 44.12C40.6 43.96 40.5333 43.8 40.4 43.64C40.2933 43.48 40.16 43.3067 40 43.12L31.52 33.76C31.36 33.6 31.1867 33.4533 31 33.32C30.84 33.16 30.7067 33.08 30.6 33.08C30.4933 33.08 30.44 33.1867 30.44 33.4C30.44 33.6133 30.44 33.7867 30.44 33.92C30.44 35.1733 30.4533 36.3733 30.48 37.52C30.5333 38.64 30.5867 40 30.64 41.6C30.6667 42.16 30.7467 42.68 30.88 43.16C31.04 43.64 31.2933 44.04 31.64 44.36C32.0133 44.68 32.5333 44.9067 33.2 45.04C33.6533 45.12 33.9867 45.2133 34.2 45.32C34.4133 45.4267 34.52 45.5733 34.52 45.76C34.52 45.92 34.4133 46.0267 34.2 46.08C33.9867 46.16 33.7067 46.2 33.36 46.2C32.64 46.2 32.08 46.1733 31.68 46.12C31.3067 46.0667 30.96 46.0267 30.64 46C30.3467 45.9467 29.9467 45.92 29.44 45.92C28.8 45.92 28.2267 45.9467 27.72 46C27.24 46.0267 26.7467 46.0667 26.24 46.12C25.7333 46.1733 25.12 46.2 24.4 46.2Z" fill="black"/>
<path d="M37.65 73.75C35.8167 73.75 34.2167 73.3 32.85 72.4C31.4833 71.5 30.4167 70.2333 29.65 68.6C28.8833 66.9333 28.5 65.0167 28.5 62.85C28.5 60.9167 28.9333 59.1667 29.8 57.6C30.7 56 31.8833 54.7167 33.35 53.75C34.8167 52.7833 36.4167 52.3 38.15 52.3C39.4833 52.3 40.6667 52.5667 41.7 53.1C42.7333 53.6333 43.5333 54.3833 44.1 55.35C44.7 56.2833 45 57.3667 45 58.6C45 59.6333 44.5 60.15 43.5 60.15H32.95C32.4833 60.15 32.15 60.2833 31.95 60.55C31.7833 60.7833 31.7 61.2667 31.7 62C31.7 63.6 32.05 65.0667 32.75 66.4C33.45 67.7 34.3833 68.75 35.55 69.55C36.7167 70.3167 38 70.7 39.4 70.7C40.4 70.7 41.3 70.5167 42.1 70.15C42.9333 69.75 43.6667 69.1833 44.3 68.45C44.4333 68.2833 44.5333 68.1833 44.6 68.15C44.6667 68.0833 44.75 68.05 44.85 68.05C45.1167 68.05 45.25 68.2167 45.25 68.55C45.25 69.1833 44.95 69.8833 44.35 70.65C43.85 71.2833 43.25 71.8333 42.55 72.3C41.85 72.7667 41.0833 73.1167 40.25 73.35C39.4167 73.6167 38.55 73.75 37.65 73.75ZM33.05 58.6H37.6C38.4 58.6 39.0833 58.5833 39.65 58.55C40.2167 58.5167 40.7667 58.45 41.3 58.35C41.4667 58.3167 41.5667 58.2167 41.6 58.05C41.6667 57.85 41.7 57.5833 41.7 57.25C41.7 56.2833 41.2667 55.4667 40.4 54.8C39.5667 54.1 38.5667 53.75 37.4 53.75C36.6333 53.75 35.8667 53.9833 35.1 54.45C34.3333 54.8833 33.7 55.4333 33.2 56.1C32.7 56.7667 32.45 57.4333 32.45 58.1C32.45 58.4333 32.65 58.6 33.05 58.6Z" fill="black"/>
<path d="M49.3 66.3C48.78 66.3 48.36 66.22 48.04 66.06C47.76 65.94 47.62 65.78 47.62 65.58C47.62 65.22 47.8 64.98 48.16 64.86C48.56 64.7 48.82 64.6 48.94 64.56C50.5 64.24 51.7 63.78 52.54 63.18C53.38 62.54 53.8 61.56 53.8 60.24V32.4C53.8 31.44 53.7 30.74 53.5 30.3C53.3 29.82 52.94 29.48 52.42 29.28C51.9 29.04 51.14 28.84 50.14 28.68C48.82 28.44 48.16 28.04 48.16 27.48C48.16 27.24 48.32 27.08 48.64 27C48.96 26.88 49.38 26.82 49.9 26.82C50.98 26.82 51.84 26.84 52.48 26.88C53.16 26.92 53.8 26.96 54.4 27C55 27 55.74 27 56.62 27C57.62 27 58.48 27 59.2 27C59.92 26.96 60.66 26.92 61.42 26.88C62.18 26.84 63.1 26.82 64.18 26.82C64.7 26.82 65.12 26.88 65.44 27C65.76 27.08 65.92 27.24 65.92 27.48C65.92 27.76 65.76 28 65.44 28.2C65.12 28.4 64.62 28.56 63.94 28.68C62.46 28.96 61.2 29.3 60.16 29.7C59.12 30.06 58.6 30.82 58.6 31.98V60.24C58.6 61.48 58.88 62.4 59.44 63C60 63.6 61.26 63.9 63.22 63.9H70.66C71.74 63.9 72.68 63.74 73.48 63.42C74.32 63.06 74.94 62.7 75.34 62.34C76.14 61.66 76.72 61.06 77.08 60.54C77.48 59.98 77.94 59.16 78.46 58.08C78.54 57.84 78.7 57.48 78.94 57C79.22 56.52 79.5 56.28 79.78 56.28C80.02 56.28 80.2 56.4 80.32 56.64C80.44 56.88 80.5 57.12 80.5 57.36C80.5 57.4 80.48 57.46 80.44 57.54C80.44 57.58 80.44 57.62 80.44 57.66C80.16 58.7 79.9 59.64 79.66 60.48C79.46 61.32 79.28 62.12 79.12 62.88C79 63.64 78.9 64.44 78.82 65.28C78.78 65.56 78.7 65.8 78.58 66C78.5 66.2 78.3 66.3 77.98 66.3C75.98 66.3 74.06 66.28 72.22 66.24C70.38 66.2 68.6 66.16 66.88 66.12C65.2 66.12 63.58 66.1 62.02 66.06C60.46 66.02 58.92 66 57.4 66C56.4 66 55.26 66.02 53.98 66.06C52.74 66.1 51.64 66.14 50.68 66.18C49.76 66.26 49.3 66.3 49.3 66.3Z" fill="black"/>
</svg>
